<svg xmlns="http://www.w3.org/2000/svg" version="1.1" xmlns:xlink="http://www.w3.org/1999/xlink" xmlns:svgjs="http://svgjs.dev/svgjs" width="1440" height="560" preserveAspectRatio="none" viewBox="0 0 1440 560"><g mask="url(&quot;#SvgjsMask1015&quot;)" fill="none"><rect width="1440" height="560" x="0" y="0" fill="rgba(249, 217, 170, 1)"></rect><path d="M50.67,283.196C67.365,283.452,83.234,274.059,90.741,259.145C97.643,245.432,92.408,229.622,84.147,216.682C76.62,204.893,64.628,197.275,50.67,196.382C34.771,195.365,17.216,198.307,8.849,211.865C0.173,225.923,4.32,243.695,12.675,257.946C20.918,272.006,34.374,282.946,50.67,283.196" fill="rgba(229, 129, 36, 1)" class="triangle-float3"></path><path d="M-53 537.88 a157.84 157.84 0 1 0 315.68 0 a157.84 157.84 0 1 0 -315.68 0z" fill="rgba(229, 129, 36, 1)" class="triangle-float1"></path><path d="M178.127,402.003C226.992,401.64,276.709,383.467,300.417,340.738C323.568,299.013,311.03,248.47,285.779,207.982C262.166,170.12,222.692,146.902,178.127,144.652C128.815,142.163,76.282,154.37,49.846,196.071C21.816,240.286,24.974,298.142,52.654,342.577C78.88,384.678,128.527,402.371,178.127,402.003" fill="rgba(229, 129, 36, 1)" class="triangle-float2"></path><path d="M5.32 424.6 a104.13 104.13 0 1 0 208.26 0 a104.13 104.13 0 1 0 -208.26 0z" fill="rgba(229, 129, 36, 1)" class="triangle-float1"></path><path d="M998.894,252.096C1036.788,251.218,1073.946,238.972,1095.2,207.588C1119.402,171.85,1132.263,124.821,1110.218,87.713C1088.492,51.142,1041.417,44.364,998.894,45.478C958.772,46.529,918.527,59.27,897.235,93.293C874.687,129.324,871.62,176.439,894.536,212.237C916.053,245.85,958.995,253.02,998.894,252.096" fill="rgba(229, 129, 36, 1)" class="triangle-float1"></path><path d="M1118.214,476.824C1170.996,479.434,1223.534,456.064,1250.48,410.604C1277.913,364.322,1276.26,305.011,1246.698,260.059C1219.592,218.841,1167.543,208.942,1118.214,209.481C1070.087,210.007,1018.935,221.347,994.503,262.815C969.785,304.769,982.445,356.399,1006.815,398.556C1031.158,440.666,1069.633,474.422,1118.214,476.824" fill="rgba(229, 129, 36, 1)" class="triangle-float2"></path><path d="M420.045,477.771C454.255,476.091,479.558,450.697,497.829,421.727C517.863,389.961,538.898,351.564,520.174,319.009C501.421,286.404,457.596,284.318,420.045,286.485C387.038,288.39,355.986,301.701,338.116,329.517C318.595,359.903,310.325,398.47,327.794,430.08C345.74,462.553,382.988,479.591,420.045,477.771" fill="rgba(229, 129, 36, 1)" class="triangle-float3"></path><path d="M1046.74 221.52 a136.09 136.09 0 1 0 272.18 0 a136.09 136.09 0 1 0 -272.18 0z" fill="rgba(229, 129, 36, 1)" class="triangle-float1"></path><path d="M1412.905,584.931C1453.448,584.999,1475.693,542.653,1495.835,507.467C1515.786,472.616,1540.238,432.442,1520.083,397.708C1499.967,363.04,1452.878,361.597,1412.905,364.547C1378.922,367.055,1347.072,382.232,1330.019,411.733C1312.952,441.259,1315.731,476.428,1330.453,507.191C1347.93,543.71,1372.419,584.864,1412.905,584.931" fill="rgba(229, 129, 36, 1)" class="triangle-float1"></path></g><defs><mask id="SvgjsMask1015"><rect width="1440" height="560" fill="#ffffff"></rect></mask><style>
                @keyframes float1 {
                    0%{transform: translate(0, 0)}
                    50%{transform: translate(-10px, 0)}
                    100%{transform: translate(0, 0)}
                }

                .triangle-float1 {
                    animation: float1 5s infinite;
                }

                @keyframes float2 {
                    0%{transform: translate(0, 0)}
                    50%{transform: translate(-5px, -5px)}
                    100%{transform: translate(0, 0)}
                }

                .triangle-float2 {
                    animation: float2 4s infinite;
                }

                @keyframes float3 {
                    0%{transform: translate(0, 0)}
                    50%{transform: translate(0, -10px)}
                    100%{transform: translate(0, 0)}
                }

                .triangle-float3 {
                    animation: float3 6s infinite;
                }
            </style></defs></svg>